<?xml version="1.0" standalone="no"?>
<!DOCTYPE svg PUBLIC "-//W3C//DTD SVG 20010904//EN"
 "http://www.w3.org/TR/2001/REC-SVG-20010904/DTD/svg10.dtd">
<svg version="1.0" xmlns="http://www.w3.org/2000/svg"
 width="1280.000000pt" height="1280.000000pt" viewBox="0 0 1280.000000 1280.000000"
 preserveAspectRatio="xMidYMid meet">
<metadata>
Created by potrace 1.11, written by Peter Selinger 2001-2013
</metadata>
<g transform="translate(0.000000,1280.000000) scale(0.100000,-0.100000)"
fill="#000000" stroke="none">
<path d="M6267 11464 c-1 -1 -67 -5 -147 -9 -80 -3 -158 -8 -175 -10 -16 -2
-61 -7 -100 -11 -75 -7 -92 -9 -170 -19 -27 -4 -63 -9 -80 -10 -16 -2 -30 -4
-30 -5 0 -1 -9 -3 -20 -5 -11 -1 -38 -5 -60 -9 -22 -3 -53 -9 -70 -12 -16 -4
-38 -7 -47 -8 -10 0 -18 -3 -18 -6 0 -3 -8 -6 -17 -6 -36 -1 -289 -60 -308
-72 -5 -3 -22 -7 -39 -9 -16 -2 -35 -8 -43 -14 -7 -6 -13 -9 -13 -6 0 5 -119
-32 -160 -50 -8 -3 -19 -7 -25 -8 -26 -3 -71 -19 -82 -27 -6 -5 -24 -11 -39
-14 -16 -3 -33 -9 -39 -14 -5 -4 -29 -13 -52 -19 -24 -7 -43 -16 -43 -21 0 -4
-18 -11 -40 -15 -22 -4 -40 -11 -40 -16 0 -5 -5 -9 -11 -9 -17 0 -193 -81
-200 -92 -3 -5 -9 -9 -13 -8 -10 2 -120 -52 -127 -63 -3 -5 -9 -8 -13 -8 -12
1 -96 -43 -96 -51 0 -4 -7 -8 -15 -8 -8 0 -15 -5 -15 -11 0 -5 -4 -8 -8 -5 -5
3 -31 -9 -59 -27 -27 -18 -65 -41 -84 -51 -19 -11 -39 -25 -46 -30 -6 -6 -34
-24 -62 -41 -28 -16 -51 -33 -51 -37 0 -5 -6 -8 -12 -8 -12 0 -45 -24 -90 -63
-9 -9 -18 -14 -20 -11 -2 2 -20 -10 -39 -27 -39 -34 -45 -38 -80 -61 -24 -15
-48 -35 -168 -136 -24 -20 -54 -44 -67 -53 -13 -8 -22 -18 -18 -21 3 -4 -4 -9
-15 -13 -12 -3 -19 -11 -16 -16 4 -5 0 -9 -7 -9 -7 -1 -40 -26 -73 -57 -33
-31 -54 -52 -46 -48 10 5 12 4 7 -4 -4 -6 -11 -9 -15 -7 -3 3 -40 -29 -81 -70
-41 -41 -78 -74 -82 -74 -4 0 -8 -4 -8 -8 0 -4 -47 -57 -104 -117 -58 -60
-104 -111 -102 -112 2 -2 -13 -21 -33 -42 -76 -80 -201 -238 -201 -254 0 -6
-3 -7 -7 -4 -6 6 -15 -5 -55 -68 -13 -20 -23 -32 -46 -60 -7 -8 -10 -15 -5
-15 4 0 -2 -7 -13 -15 -10 -8 -15 -15 -10 -15 5 0 0 -8 -10 -17 -10 -10 -26
-27 -34 -37 -13 -18 -13 -19 0 -12 11 5 11 4 -1 -6 -18 -15 -157 -229 -161
-249 -2 -7 -11 -21 -21 -31 -10 -10 -15 -23 -12 -28 4 -6 2 -10 -3 -10 -6 0
-27 -35 -48 -77 -21 -43 -41 -80 -44 -83 -14 -14 -39 -73 -34 -81 3 -5 0 -9
-5 -9 -6 0 -11 -7 -11 -15 0 -8 -4 -15 -10 -15 -5 0 -9 -3 -8 -7 0 -5 -7 -26
-17 -48 -10 -22 -18 -43 -17 -47 1 -3 -5 -12 -13 -18 -8 -7 -15 -20 -15 -30 0
-9 -3 -20 -7 -24 -5 -4 -8 -11 -8 -14 -1 -4 -6 -17 -13 -29 -7 -13 -10 -23 -6
-23 3 0 2 -6 -4 -13 -11 -13 -94 -229 -117 -304 -7 -23 -10 -44 -7 -47 3 -4 0
-6 -6 -6 -7 0 -12 -9 -12 -20 0 -10 -4 -29 -9 -42 -12 -29 -38 -115 -45 -148
-3 -14 -15 -61 -26 -105 -12 -44 -23 -95 -25 -113 -2 -18 -6 -36 -9 -40 -3 -5
-8 -24 -11 -43 -3 -19 -8 -41 -10 -49 -2 -8 -7 -33 -10 -55 -3 -23 -7 -50 -9
-60 -2 -11 -7 -40 -11 -65 -3 -25 -9 -58 -12 -75 -5 -30 -10 -73 -18 -155 -2
-25 -6 -65 -9 -90 -13 -101 -18 -229 -19 -495 -1 -306 10 -518 37 -705 3 -19
8 -60 12 -90 4 -30 8 -64 10 -75 3 -11 7 -36 10 -55 5 -34 19 -112 29 -157 19
-89 25 -117 29 -138 2 -11 9 -40 16 -65 7 -25 14 -53 15 -62 2 -10 6 -22 9
-26 3 -5 7 -19 10 -33 14 -72 32 -129 39 -129 4 0 5 -5 2 -10 -4 -6 -2 -16 3
-23 5 -7 12 -29 16 -49 4 -21 11 -38 17 -38 6 0 7 -4 4 -10 -3 -5 -3 -16 2
-22 4 -7 8 -17 9 -23 3 -17 44 -129 55 -147 5 -10 9 -24 9 -32 0 -7 7 -19 15
-26 8 -7 13 -16 10 -20 -5 -8 36 -106 75 -183 11 -22 20 -45 20 -53 0 -8 5
-14 10 -14 6 0 9 -3 8 -7 -2 -10 44 -106 55 -114 5 -3 8 -10 8 -15 -2 -22 11
-44 22 -38 7 4 9 4 5 -1 -17 -19 315 -565 344 -565 5 0 7 -4 4 -8 -3 -5 8 -23
24 -41 17 -18 30 -35 30 -37 0 -5 86 -120 100 -134 3 -3 27 -32 55 -65 27 -33
56 -66 63 -74 7 -8 20 -24 29 -37 8 -13 20 -21 26 -17 5 3 8 2 4 -3 -7 -13 78
-106 88 -96 5 4 6 2 2 -3 -3 -6 15 -30 39 -55 24 -24 44 -48 44 -52 0 -4 7 -8
15 -8 8 0 14 -6 13 -12 -2 -7 2 -12 9 -11 6 2 15 -6 18 -17 4 -11 14 -20 22
-20 9 0 14 -3 11 -6 -6 -5 32 -43 167 -169 28 -25 63 -56 79 -68 15 -12 42
-37 59 -55 17 -17 32 -30 34 -28 3 2 17 -9 32 -25 16 -16 32 -29 37 -29 5 0
15 -9 22 -20 7 -11 17 -20 22 -20 6 0 27 -16 47 -35 20 -19 40 -35 44 -35 4 0
14 -6 21 -13 7 -7 38 -30 68 -52 30 -22 58 -44 62 -50 5 -6 8 -6 8 0 0 6 3 6
8 -1 16 -23 311 -211 325 -206 4 1 7 -2 7 -8 0 -12 75 -51 84 -43 3 4 6 2 6
-4 0 -10 49 -38 63 -35 4 1 7 -2 7 -7 0 -9 60 -37 73 -33 4 1 7 -2 7 -6 0 -5
19 -18 42 -29 142 -68 175 -83 188 -85 8 -2 17 -6 20 -10 5 -7 256 -109 275
-112 6 -1 15 -4 20 -7 6 -4 28 -12 50 -18 22 -7 49 -16 60 -21 24 -10 147 -49
172 -53 10 -2 25 -7 33 -10 13 -5 64 -19 120 -33 8 -2 35 -8 60 -15 52 -12 74
-17 114 -25 16 -2 32 -7 36 -9 4 -3 23 -6 43 -9 20 -2 44 -7 54 -10 10 -3 34
-8 53 -10 19 -3 46 -7 60 -10 14 -3 43 -7 65 -10 22 -3 51 -7 65 -10 33 -6
189 -24 275 -31 323 -28 840 -23 1075 10 19 3 58 7 85 10 28 3 62 8 76 10 15
3 47 7 70 10 44 6 71 10 119 20 13 2 40 7 60 10 34 5 73 13 95 19 6 1 31 6 58
11 26 4 50 11 53 16 3 5 9 7 13 5 6 -4 50 6 191 45 19 5 46 12 59 15 14 3 28
7 33 10 4 3 16 7 25 9 17 3 158 49 193 62 8 4 17 7 20 7 3 1 50 19 105 41 55
22 102 40 105 40 3 0 28 12 55 25 28 13 52 24 55 25 30 8 50 18 50 24 0 4 6 8
13 8 17 0 190 84 199 97 4 6 8 7 8 3 0 -5 12 0 28 10 15 10 45 27 67 38 22 11
42 22 45 25 3 3 25 16 50 29 25 13 51 31 57 39 7 9 13 13 13 9 0 -8 35 8 54
25 6 5 47 32 91 60 44 28 82 55 83 59 2 5 8 9 13 9 13 0 99 63 99 73 0 4 4 6
9 2 5 -3 17 5 25 17 9 12 16 19 16 14 0 -9 87 58 108 83 6 8 12 11 12 6 0 -5
13 5 29 22 16 18 31 30 34 27 2 -3 16 9 30 26 15 17 29 30 32 29 4 0 30 20 58
45 29 25 66 58 82 72 17 15 23 23 15 19 -9 -5 -12 -4 -7 1 5 5 12 9 16 9 14 0
166 147 163 157 -1 5 1 7 6 4 11 -6 43 30 34 39 -4 4 -2 5 3 3 13 -4 75 58 75
74 0 6 3 9 6 5 4 -3 23 13 43 35 20 23 46 50 58 61 12 11 20 24 17 29 -3 5 -2
7 3 6 4 -2 9 -1 10 2 1 3 25 29 53 59 28 30 79 89 112 130 33 42 68 86 79 98
10 13 17 23 14 23 -2 0 11 17 30 37 19 20 32 40 29 44 -2 4 3 10 12 13 8 3 12
10 9 16 -3 5 -2 10 4 10 11 0 101 125 101 140 0 6 5 10 10 10 6 0 10 7 10 15
0 8 5 15 10 15 6 0 10 7 10 15 0 8 5 15 12 15 6 0 9 3 5 6 -3 3 2 15 12 25 10
11 24 32 32 47 8 15 26 46 42 68 15 23 27 47 27 53 0 6 3 11 8 11 7 0 30 45
33 65 1 6 12 23 25 38 22 26 28 41 25 59 0 5 3 8 8 8 5 0 12 11 15 25 4 14 11
25 16 25 6 0 10 6 10 13 0 7 9 29 19 49 11 19 17 39 14 42 -4 3 -2 6 3 6 8 0
45 68 49 90 1 3 13 30 27 60 22 49 38 85 43 100 1 3 7 19 14 35 6 17 19 50 28
75 9 25 21 50 26 57 5 7 6 17 2 23 -3 5 -1 10 6 10 7 0 9 3 6 7 -4 3 -2 12 4
20 6 7 8 13 4 13 -4 0 -2 7 5 15 7 8 9 15 5 15 -4 0 -3 6 2 13 9 10 52 142 57
172 1 6 5 16 9 23 5 6 6 12 2 12 -3 0 2 16 10 37 8 20 13 38 11 40 -2 3 2 21
10 40 9 19 13 38 10 40 -3 3 -1 13 4 23 5 9 11 28 14 41 2 13 11 54 20 92 9
37 18 82 21 100 10 57 18 101 22 122 6 35 14 81 18 116 3 19 7 50 9 69 9 69
17 136 21 180 2 25 7 83 12 130 16 176 9 762 -12 955 -1 17 -6 59 -9 95 -4 36
-9 72 -11 80 -2 8 -7 44 -10 80 -4 36 -9 68 -12 73 -2 4 -6 24 -8 45 -3 20 -7
48 -10 62 -7 35 -37 182 -40 200 -2 8 -4 15 -5 15 -1 0 -4 16 -7 35 -2 19 -9
42 -14 51 -5 10 -9 28 -9 42 0 13 -3 27 -7 31 -4 3 -8 12 -9 19 -6 39 -70 249
-104 342 -45 125 -83 223 -100 260 -10 22 -32 70 -49 108 -17 37 -31 72 -31
77 0 6 -5 10 -12 10 -6 0 -9 3 -5 6 8 9 -111 238 -202 389 -23 37 -41 71 -41
76 0 5 -4 9 -10 9 -5 0 -10 7 -10 15 0 7 -8 19 -17 24 -10 6 -14 11 -10 11 9
0 -52 93 -65 98 -4 2 -8 8 -8 14 0 5 -8 20 -17 33 -10 12 -25 33 -33 45 -8 13
-23 32 -32 42 -10 10 -17 20 -15 22 2 3 -92 126 -136 179 -10 12 -35 43 -54
69 -20 26 -41 44 -46 41 -6 -3 -7 -2 -4 3 3 6 -14 32 -39 58 -24 27 -44 53
-44 58 0 5 -4 6 -10 3 -5 -3 -10 -2 -10 2 0 5 -18 29 -40 53 -22 25 -40 49
-40 53 0 5 -4 5 -10 2 -5 -3 -10 -2 -10 2 0 13 -111 128 -121 126 -5 -2 -9 1
-9 7 0 5 -34 42 -77 82 -42 40 -85 83 -96 96 -11 12 -24 22 -29 22 -4 0 -20
13 -35 28 -16 15 -57 52 -93 82 -36 30 -66 58 -68 63 -2 4 -10 7 -17 7 -7 0
-15 3 -17 8 -2 4 -18 21 -37 37 -19 17 -30 24 -26 16 4 -8 -11 5 -35 28 -24
23 -45 39 -48 36 -3 -3 -12 4 -19 15 -8 11 -19 18 -24 15 -5 -4 -9 -2 -9 3 0
5 -20 23 -45 41 -25 18 -45 30 -45 27 0 -3 -12 6 -26 19 -14 13 -35 27 -45 30
-11 4 -19 11 -19 16 0 6 -4 7 -10 4 -5 -3 -10 -2 -10 3 0 9 -102 72 -115 72
-3 0 -14 9 -25 20 -12 12 -26 18 -32 14 -6 -4 -8 -3 -5 3 4 6 -8 17 -26 24
-17 7 -38 19 -45 26 -8 7 -18 11 -23 8 -5 -4 -9 -2 -9 2 0 5 -30 24 -67 43
-38 19 -70 38 -73 42 -3 3 -18 10 -33 13 -15 4 -27 12 -27 18 0 6 -3 7 -6 4
-4 -4 -19 2 -34 13 -15 11 -37 21 -47 23 -11 1 -31 10 -44 18 -13 8 -44 23
-69 34 -25 10 -63 26 -85 36 -80 34 -170 70 -185 74 -8 2 -60 20 -114 40 -55
19 -110 36 -123 37 -13 2 -23 5 -23 8 0 4 -24 12 -52 20 -66 17 -65 17 -113
30 -22 6 -49 13 -60 14 -12 2 -48 11 -80 19 -78 21 -115 29 -140 33 -11 2 -55
10 -99 18 -43 9 -95 18 -115 21 -20 3 -46 7 -56 9 -65 12 -188 26 -360 41
-129 11 -590 26 -598 19z"/>
</g>
</svg>
