<svg version="1" xmlns="http://www.w3.org/2000/svg" width="933.333" height="933.333" viewBox="0 0 700.000000 700.000000"><path d="M557.8.5c-.2.1-2.8.6-5.8.9-26.9 3.2-53.7 16.7-75 37.9-42.2 41.7-68.3 80.4-77.1 113.9-2.3 8.7-3.2 29.3-1.7 36.8 1.4 6.7 1.7 7.5 4.2 14.4 2.7 7.5 2.8 7.1-2.4 12.6-2.9 3-22.7 24.2-29.2 31.3l-4.4 4.7-43.5-43.5-43.5-43.4-96.9 97c-53.4 53.3-97.2 97.1-97.3 97.4-.2.2 20.5 21.3 46.1 46.8l46.5 46.4-3.5 3.9c-1.9 2.2-8.5 9.3-14.7 15.9-6.3 6.6-12.8 13.6-14.6 15.5-1.8 1.9-8.5 9.1-15 16s-13.2 14.1-15 16c-1.8 1.9-8.5 9.1-15 16s-13.2 14.1-15 16c-1.8 1.9-8.5 9.1-14.9 15.9-6.4 6.8-12.9 13.8-14.6 15.6-1.6 1.7-8.4 8.9-15 16-6.6 7-13.5 14.4-15.4 16.4-1.8 2-5.9 6.3-9 9.6C4.6 638.7 1 645.9.5 657.3c-.3 7.4 1.8 18.2 4 20.7.8.9 1.5 2 1.5 2.5 0 1.9 7.3 9.5 12.2 12.7 15.3 9.9 36.1 8.2 49.5-4 2.3-2 9.9-9.1 16.9-15.7 7-6.6 14.2-13.4 16-15 12.1-11.4 31-29.1 37.4-35.2 4.1-3.9 8.6-8 9.8-9.2 1.3-1.1 8.5-7.7 15.9-14.8 7.5-7 14.6-13.7 15.8-14.8 7.9-7.4 17.3-16.2 25.1-23.5 4.9-4.7 15-14.1 22.4-21 7.3-6.9 14.4-13.5 15.6-14.8 1.3-1.2 2.8-2.2 3.4-2.2.6 0 21.8 20.7 47.1 46.1 25.3 25.3 46.4 45.8 46.7 45.5.4-.4 44.2-44.1 97.4-97.3l96.8-96.7-43.6-43.5-43.5-43.6 2.8-2.4c1.5-1.3 9.1-8.3 16.8-15.6 7.7-7.3 15.8-14.8 17.9-16.9 4-3.7 5.5-4.3 7.1-2.7 1.2 1.1 12.7 4.7 18.7 5.8 8.6 1.5 27.7.7 36.6-1.6 30.9-8.1 65.3-30.4 103.6-67.1 15.9-15.3 20.8-20.7 27.3-30.4 14.2-21.1 21.3-43.7 21.8-69.7.3-15.9-1.2-27.1-5.6-41.4-5.8-19-15.5-35.5-29.3-50.2-19.9-21.1-42.2-33.2-73-39.4-4.6-1-33-2.1-33.8-1.4z"/></svg>